<?xml version="1.0" encoding="UTF-8" standalone="no"?>
<!DOCTYPE svg PUBLIC "-//W3C//DTD SVG 1.1//EN"
 "http://www.w3.org/Graphics/SVG/1.1/DTD/svg11.dtd">
<!-- Generated by graphviz version 2.40.1 (20161225.0304)
 -->
<!-- Title: hierarchical_model Pages: 1 -->
<svg width="1048pt" height="288pt"
 viewBox="0.00 0.00 1048.24 288.43" xmlns="http://www.w3.org/2000/svg" xmlns:xlink="http://www.w3.org/1999/xlink">
<g id="graph0" class="graph" transform="scale(1 1) rotate(0) translate(4 284.4313)">
<title>hierarchical_model</title>
<polygon fill="#ffffff" stroke="transparent" points="-4,4 -4,-284.4313 1044.2407,-284.4313 1044.2407,4 -4,4"/>
<!-- Y -->
<g id="node1" class="node">
<title>Y</title>
<polygon fill="#add8e6" stroke="#000000" points="624.7406,-41.4019 380.0106,-41.4019 380.0106,-.1981 624.7406,-.1981 624.7406,-41.4019"/>
<text text-anchor="middle" x="502.3756" y="-25" font-family="Times,serif" font-size="14.00" fill="#000000">Observed Data</text>
<text text-anchor="middle" x="502.3756" y="-8.2" font-family="Times,serif" font-size="14.00" fill="#000000">Y_ij = log10(f(theta_i, t_ij)) + epsilon_ij</text>
</g>
<!-- theta -->
<g id="node2" class="node">
<title>theta</title>
<ellipse fill="#ffec8b" stroke="#000000" cx="502.3756" cy="-107.0156" rx="161.5375" ry="29.3315"/>
<text text-anchor="middle" x="502.3756" y="-111.2156" font-family="Times,serif" font-size="14.00" fill="#000000">Latent Parameters</text>
<text text-anchor="middle" x="502.3756" y="-94.4156" font-family="Times,serif" font-size="14.00" fill="#000000">theta_i = (phi_Li, phi_Si, delta_Ab_i)</text>
</g>
<!-- theta&#45;&gt;Y -->
<g id="edge7" class="edge">
<title>theta&#45;&gt;Y</title>
<path fill="none" stroke="#000000" d="M502.3756,-77.3451C502.3756,-69.0569 502.3756,-60.0324 502.3756,-51.6764"/>
<polygon fill="#000000" stroke="#000000" points="505.8757,-51.5553 502.3756,-41.5554 498.8757,-51.5554 505.8757,-51.5553"/>
</g>
<!-- phi_L -->
<g id="node3" class="node">
<title>phi_L</title>
<text text-anchor="middle" x="147.3756" y="-186.2313" font-family="Times,serif" font-size="14.00" fill="#000000">log(phi_Li) = log(phi_L0) + beta_L * Eur_i + u_i</text>
</g>
<!-- phi_L&#45;&gt;theta -->
<g id="edge4" class="edge">
<title>phi_L&#45;&gt;theta</title>
<path fill="none" stroke="#000000" d="M224.4053,-172.3313C273.7426,-160.7384 338.5216,-145.517 393.1318,-132.685"/>
<polygon fill="#000000" stroke="#000000" points="394.2702,-136.013 403.2044,-130.3183 392.6689,-129.1986 394.2702,-136.013"/>
</g>
<!-- phi_S -->
<g id="node4" class="node">
<title>phi_S</title>
<text text-anchor="middle" x="502.3756" y="-186.2313" font-family="Times,serif" font-size="14.00" fill="#000000">log(phi_Si) = log(phi_S0) + beta_S * (Age_i &#45; mean(Age)) + u_i</text>
</g>
<!-- phi_S&#45;&gt;theta -->
<g id="edge5" class="edge">
<title>phi_S&#45;&gt;theta</title>
<path fill="none" stroke="#000000" d="M502.3756,-172.3313C502.3756,-164.7418 502.3756,-155.5972 502.3756,-146.586"/>
<polygon fill="#000000" stroke="#000000" points="505.8757,-146.5587 502.3756,-136.5588 498.8757,-146.5588 505.8757,-146.5587"/>
</g>
<!-- delta_Ab -->
<g id="node5" class="node">
<title>delta_Ab</title>
<text text-anchor="middle" x="875.3756" y="-186.2313" font-family="Times,serif" font-size="14.00" fill="#000000">log(delta_Ab_i) = log(delta_0) + beta_M * Men_i + u_i</text>
</g>
<!-- delta_Ab&#45;&gt;theta -->
<g id="edge6" class="edge">
<title>delta_Ab&#45;&gt;theta</title>
<path fill="none" stroke="#000000" d="M794.4402,-172.3313C741.7785,-160.5544 672.3731,-145.0329 614.4347,-132.0759"/>
<polygon fill="#000000" stroke="#000000" points="615.0227,-128.621 604.4998,-129.8541 613.4949,-135.4523 615.0227,-128.621"/>
</g>
<!-- Eur -->
<g id="node6" class="node">
<title>Eur</title>
<ellipse fill="#ffe4e1" stroke="#000000" cx="147.3756" cy="-262.4313" rx="78.1738" ry="18"/>
<text text-anchor="middle" x="147.3756" y="-258.2313" font-family="Times,serif" font-size="14.00" fill="#000000">Eur_i (European)</text>
</g>
<!-- Eur&#45;&gt;phi_L -->
<g id="edge1" class="edge">
<title>Eur&#45;&gt;phi_L</title>
<path fill="none" stroke="#000000" d="M147.3756,-244.2626C147.3756,-236.5622 147.3756,-227.4056 147.3756,-218.8479"/>
<polygon fill="#000000" stroke="#000000" points="150.8757,-218.8445 147.3756,-208.8446 143.8757,-218.8446 150.8757,-218.8445"/>
</g>
<!-- Age -->
<g id="node7" class="node">
<title>Age</title>
<ellipse fill="#ffe4e1" stroke="#000000" cx="502.3756" cy="-262.4313" rx="34.7709" ry="18"/>
<text text-anchor="middle" x="502.3756" y="-258.2313" font-family="Times,serif" font-size="14.00" fill="#000000">Age_i</text>
</g>
<!-- Age&#45;&gt;phi_S -->
<g id="edge2" class="edge">
<title>Age&#45;&gt;phi_S</title>
<path fill="none" stroke="#000000" d="M502.3756,-244.2626C502.3756,-236.5622 502.3756,-227.4056 502.3756,-218.8479"/>
<polygon fill="#000000" stroke="#000000" points="505.8757,-218.8445 502.3756,-208.8446 498.8757,-218.8446 505.8757,-218.8445"/>
</g>
<!-- Men -->
<g id="node8" class="node">
<title>Men</title>
<ellipse fill="#ffe4e1" stroke="#000000" cx="875.3756" cy="-262.4313" rx="64.8658" ry="18"/>
<text text-anchor="middle" x="875.3756" y="-258.2313" font-family="Times,serif" font-size="14.00" fill="#000000">Men_i (Male)</text>
</g>
<!-- Men&#45;&gt;delta_Ab -->
<g id="edge3" class="edge">
<title>Men&#45;&gt;delta_Ab</title>
<path fill="none" stroke="#000000" d="M875.3756,-244.2626C875.3756,-236.5622 875.3756,-227.4056 875.3756,-218.8479"/>
<polygon fill="#000000" stroke="#000000" points="878.8757,-218.8445 875.3756,-208.8446 871.8757,-218.8446 878.8757,-218.8445"/>
</g>
</g>
</svg>

